<svg id="Capa_1" data-name="Capa 1" xmlns="http://www.w3.org/2000/svg" viewBox="0 0 80 80"><defs><style>.cls-1{fill:#fdfbe7;}.cls-2{fill:#e5231e;}.cls-3{font-size:13.58px;font-family:NeoSans-Bold, NeoSans;font-weight:700;}.cls-3,.cls-4{fill:#1d1d1b;}.cls-5{fill:#7b1619;}.cls-6{fill:#bd1826;}</style></defs><rect class="cls-1" x="2.84" y="2.77" width="74.46" height="74.46" rx="2.67"/><path class="cls-2" d="M74.63,3.77A1.67,1.67,0,0,1,76.3,5.44V74.56a1.67,1.67,0,0,1-1.67,1.67H5.51a1.67,1.67,0,0,1-1.67-1.67V5.44A1.67,1.67,0,0,1,5.51,3.77H74.63m0-2H5.51A3.67,3.67,0,0,0,1.84,5.44V74.56a3.67,3.67,0,0,0,3.67,3.67H74.63a3.67,3.67,0,0,0,3.67-3.67V5.44a3.67,3.67,0,0,0-3.67-3.67Z"/><text class="cls-3" transform="translate(12.34 58.01)">CopaDos</text><path class="cls-4" d="M43.55,33.58a.5.5,0,0,1-.27-.08l-6-3.78a1.53,1.53,0,0,1,.06-2.63l7.12-4a1.54,1.54,0,0,1,1.54,0L52.55,27a.5.5,0,0,1,.17.69.51.51,0,0,1-.69.17L45.5,24A.53.53,0,0,0,45,24l-7.12,4a.51.51,0,0,0-.27.45.52.52,0,0,0,.25.46l6,3.78a.49.49,0,0,1,.16.69A.52.52,0,0,1,43.55,33.58Z"/><path class="cls-4" d="M43.83,44a2,2,0,0,1-1-.26L36.44,40a1.92,1.92,0,0,1-.95-1.66V30.91a.5.5,0,0,1,.5-.5.5.5,0,0,1,.5.5v7.42a.93.93,0,0,0,.45.8l6.42,3.75a.92.92,0,0,0,1.39-.79V34.53a1.58,1.58,0,0,1,.8-1.38l6.94-4a1.6,1.6,0,0,1,2.39,1.39V38.4a1.6,1.6,0,0,1-.8,1.38L47.24,43.7a.51.51,0,0,1-.69-.18.52.52,0,0,1,.19-.69l6.84-3.91a.6.6,0,0,0,.3-.52V30.55A.6.6,0,0,0,53,30l-6.94,4a.57.57,0,0,0-.3.51v7.56A1.92,1.92,0,0,1,43.83,44Z"/><ellipse class="cls-4" cx="45.25" cy="31.01" rx="0.97" ry="0.92"/><ellipse class="cls-4" cx="38.38" cy="32.37" rx="0.92" ry="1.05" transform="translate(-2 62.21) rotate(-76.61)"/><ellipse class="cls-4" cx="52.15" cy="32.37" rx="1.05" ry="0.92" transform="translate(-8.71 24.41) rotate(-24.37)"/><ellipse class="cls-4" cx="47.55" cy="40.67" rx="1.05" ry="0.92" transform="translate(-12.54 23.25) rotate(-24.37)"/><ellipse class="cls-4" cx="38.38" cy="37.96" rx="0.92" ry="1.05" transform="translate(-7.43 66.5) rotate(-76.61)"/><ellipse class="cls-4" cx="42.89" cy="40.78" rx="0.92" ry="1.05" transform="translate(-6.71 73.06) rotate(-76.61)"/><ellipse class="cls-4" cx="45.25" cy="28.41" rx="0.97" ry="0.92"/><ellipse class="cls-4" cx="45.25" cy="25.82" rx="0.97" ry="0.92"/><path class="cls-4" d="M38.63,19.32c-2.41-1-5.11-.85-7.64-.7,13.19.49,7.36,3.25-1.46,2.58-1.44-.05-6.08-.83-2.36-2.07-1.33.35-1.72.72-1.59,1.07C21.66,27,22.81,34.67,30.87,36.48a9.87,9.87,0,0,0,1.2.24,10.47,10.47,0,0,1-.22,4.69c-2.71,0-5.46.36-6.19,1.25h0v0a.74.74,0,0,0-.16.32c.44,2.19,11.76,2,12.3,0-.47,1.45-6,1.79-9.45,1.18h.07c-1.69-.9,4.35-1.11,4.35-1.11V41.55c2.49.08,4.74.55,5,1.45-.24-.89-2.51-1.42-5-1.56v-5a11.4,11.4,0,0,1-1.94-.13c-7.64-2.48-8.36-9.09-5.23-16.14.3.72,2.8,1.32,3.9,1.38,3.06.25,6.29.43,9.19-.79a.91.91,0,0,0,.57-.77A1,1,0,0,0,38.63,19.32ZM26,42.66c.86-.73,3.34-1.11,5.8-1.13a5.32,5.32,0,0,1-.49,1.13Z"/><path class="cls-5" d="M32.22,26.59c.87-.21-1.9,1.36-3.68.95s-3.07-1.94-2.72-2.76c.21-.5,3.41-2.66,3.59-.84a5.33,5.33,0,0,0,1,1.52C30.71,25.83,31.77,26.69,32.22,26.59Z"/><path class="cls-6" d="M34.62,25.84c-.23-.29-1.4.87-2.45.92a6,6,0,0,1-3.63.78c-1.79-.41-3.07-1.94-2.72-2.76A.78.78,0,0,1,26,24.6l-.16,0c-.08-1.36.39-3.78,3.89-6.1,0,0-3.26-1.56-5.45,8.31l0,0c-.25,2.07,1,4.77,2.73,6.35,1.37,1.27,2.81,2.29,4.76,2.11.61-.06,1.13-1.06,1.5-1.62.49-.75.19-3.07,0-4.21C33.18,28.59,35,26.29,34.62,25.84Z"/></svg>