<svg id="Capa_1" data-name="Capa 1" xmlns="http://www.w3.org/2000/svg" viewBox="0 0 80 80"><defs><style>.cls-1{fill:#fdfbe7;}.cls-2,.cls-3{fill:#1d1d1b;}.cls-3{font-size:12px;font-family:NeoSans-Bold, NeoSans;font-weight:700;}</style></defs><rect class="cls-1" x="2.77" y="2.77" width="74.46" height="74.46" rx="2.67"/><path class="cls-2" d="M74.56,3.77a1.67,1.67,0,0,1,1.67,1.67V74.56a1.67,1.67,0,0,1-1.67,1.67H5.44a1.67,1.67,0,0,1-1.67-1.67V5.44A1.67,1.67,0,0,1,5.44,3.77H74.56m0-2H5.44A3.67,3.67,0,0,0,1.77,5.44V74.56a3.67,3.67,0,0,0,3.67,3.67H74.56a3.67,3.67,0,0,0,3.67-3.67V5.44a3.67,3.67,0,0,0-3.67-3.67Z"/><text class="cls-3" transform="translate(32.21 44.03)">TU</text></svg>