<svg id="Capa_1" data-name="Capa 1" xmlns="http://www.w3.org/2000/svg" viewBox="0 0 80 80"><defs><style>.cls-1{fill:#fdfbe7;}.cls-2,.cls-3{fill:#1d1d1b;}.cls-3{font-size:12px;font-family:NeoSans-Bold, NeoSans;font-weight:700;}</style></defs><rect class="cls-1" x="2.84" y="2.77" width="74.46" height="74.46" rx="2.67"/><path class="cls-2" d="M74.63,3.77A1.67,1.67,0,0,1,76.3,5.44V74.56a1.67,1.67,0,0,1-1.67,1.67H5.51a1.67,1.67,0,0,1-1.67-1.67V5.44A1.67,1.67,0,0,1,5.51,3.77H74.63m0-2H5.51A3.67,3.67,0,0,0,1.84,5.44V74.56a3.67,3.67,0,0,0,3.67,3.67H74.63a3.67,3.67,0,0,0,3.67-3.67V5.44a3.67,3.67,0,0,0-3.67-3.67Z"/><text class="cls-3" transform="translate(25.04 43.52)">RETO</text></svg>