<svg id="Capa_1" data-name="Capa 1" xmlns="http://www.w3.org/2000/svg" viewBox="0 0 80 80"><defs><style>.cls-1{fill:#fdfbe7;}.cls-2{fill:#e5231e;}.cls-3{font-size:10px;fill:#1d1d1b;font-family:NeoSans-Bold, NeoSans;font-weight:700;}.cls-4{font-size:12px;}.cls-5{font-family:MyriadPro-Regular, Myriad Pro;font-weight:400;}.cls-6{letter-spacing:0em;}</style></defs><rect class="cls-1" x="2.84" y="2.77" width="74.46" height="74.46" rx="2.67"/><path class="cls-2" d="M74.63,3.77A1.67,1.67,0,0,1,76.3,5.44V74.56a1.67,1.67,0,0,1-1.67,1.67H5.51a1.67,1.67,0,0,1-1.67-1.67V5.44A1.67,1.67,0,0,1,5.51,3.77H74.63m0-2H5.51A3.67,3.67,0,0,0,1.84,5.44V74.56a3.67,3.67,0,0,0,3.67,3.67H74.63a3.67,3.67,0,0,0,3.67-3.67V5.44a3.67,3.67,0,0,0-3.67-3.67Z"/><path d="M26.09,16.67h28c-.25,1.9-.48,3.74-.72,5.58-.83,6.22-1.68,12.44-2.5,18.66-.2,1.46-.63,1.9-2.06,1.9H31.33c-1.37,0-1.87-.43-2-1.69q-1.59-12-3.2-23.89A5.07,5.07,0,0,1,26.09,16.67Zm26.67,1.9H27.35c.75,5.49,1.5,10.89,2.22,16.29.1.76.51,1,1.18,1.13a49.35,49.35,0,0,0,17.14.28c2.43-.36,2.46-.45,2.82-2.91C51.42,28.46,52.08,23.56,52.76,18.57Z"/><path d="M28.94,24.08h2c.42,2.32.86,4.68,1.29,7.05l.19,0c.1-2,.24-4,.29-6,0-.87.29-1.15,1.19-1.14,5.39,0,10.77,0,16.16,0,.31,0,.62,0,1,.07-.29,2.21-.56,4.34-.84,6.46-.16,1.21-.39,2.41-.48,3.62a1,1,0,0,1-1,1.09,52.76,52.76,0,0,1-12.55.59c-1.57-.1-3.13-.38-4.7-.55-.8-.09-1.21-.35-1.32-1.28C29.88,30.75,29.4,27.49,28.94,24.08Zm15.13,6c-.37.65-.77,1.28-1.1,1.94s0,.85.52,1.06c1,.41,2,.84,3,1.33,1.16.58,1.55.4,1.93-.84a19.56,19.56,0,0,1,1.07-2.75c.44-.94.28-1.4-.71-1.8A19.16,19.16,0,0,1,47,28.13c-1.69-.9-2.27-.66-2.71,1.15-.06.25-.1.49-.15.74Zm-7.79,2.08-.24.06a16.14,16.14,0,0,0,.23,2.31,1.2,1.2,0,0,0,.86.74A35.87,35.87,0,0,0,41.27,35a1.1,1.1,0,0,0,.73-.79c0-1.24-.12-2.49-.18-3.73,0-1-.34-1.22-1.36-1.07s-2.16.27-3.25.33-1.32.39-1.07,1.78c.08-1.13.48-1.53,1.07-1.34-.09.54-.19,1-.23,1.45s0,1,0,1.74Z"/><path d="M44.11,30l1.06-1.6.17.12-1.05,3.24-.38-.06c.06-.54.11-1.09.16-1.64Z"/><text class="cls-3" transform="translate(25.71 59.73)">TOMA<tspan class="cls-4"><tspan x="-17.18" y="12">1</tspan><tspan class="cls-5" x="-9.44" y="12">/</tspan><tspan class="cls-6" x="-5.33" y="12">2 TRAGO</tspan></tspan></text></svg>