<svg id="Capa_1" data-name="Capa 1" xmlns="http://www.w3.org/2000/svg" viewBox="0 0 80 80"><defs><style>.cls-1{fill:#fdfbe7;}.cls-2{fill:#e5231e;}.cls-3{font-size:10px;fill:#1d1d1b;font-family:NeoSans-Bold, NeoSans;font-weight:700;}.cls-4{font-size:12px;}</style></defs><rect class="cls-1" x="2.84" y="2.77" width="74.46" height="74.46" rx="2.67"/><path class="cls-2" d="M74.63,3.77A1.67,1.67,0,0,1,76.3,5.44V74.56a1.67,1.67,0,0,1-1.67,1.67H5.51a1.67,1.67,0,0,1-1.67-1.67V5.44A1.67,1.67,0,0,1,5.51,3.77H74.63m0-2H5.51A3.67,3.67,0,0,0,1.84,5.44V74.56a3.67,3.67,0,0,0,3.67,3.67H74.63a3.67,3.67,0,0,0,3.67-3.67V5.44a3.67,3.67,0,0,0-3.67-3.67Z"/><path d="M36.94,31.31c0,1.53.08,3,.11,4.43L37.23,43a1.44,1.44,0,0,1-2.88.17q-.63-5.54-1.27-11.09a.21.21,0,0,0-.09-.14c0,.31-.08.61-.11.91Q32.28,38,31.7,43.17a1.44,1.44,0,1,1-2.88-.2l.45-15c0-.37,0-.75.06-1.13l4.37-1-.1-1.17c-.68.15-1.34.27-2,.44a40.91,40.91,0,0,1-5.25.92,1,1,0,0,1-1.09-.54,1,1,0,0,1,.08-1.21c.23-.3.51-.55.76-.83l2.9-3A1.1,1.1,0,1,1,30.56,22l-1.06,1a2.62,2.62,0,0,0-.23.32l.07.1,4.15-.88c0-.65-.06-1.29-.11-1.93,0-.09-.09-.18-.16-.25a1.19,1.19,0,0,1,1.66-1.7,1.22,1.22,0,0,1,0,1.69.83.83,0,0,0-.19.44c-.07,1-.12,2.06-.18,3.1,0,.29,0,.56-.36.7a.24.24,0,0,0-.1.19c0,.32,0,.65.06,1A1.64,1.64,0,0,0,35.7,24c.06-.83.11-1.66.15-2.48a1.5,1.5,0,0,1,.27-1,2.67,2.67,0,0,0,.24-.54,1.23,1.23,0,0,1,.92.39L42,24.59c.38.33.79.65,1.18,1a1.19,1.19,0,0,1,.26,1.71,1.17,1.17,0,0,1-1.69.22C40.35,26.36,39,25.19,37.62,24l-.85-.74a.69.69,0,0,0,0,.16c.06,2.2.12,4.4.16,6.61a1.24,1.24,0,0,0,.39.89,8.16,8.16,0,0,1,2.23,4.38,9.11,9.11,0,0,0,.6,2.19,6.8,6.8,0,0,0,3.57,3.53l6.93,3.15c.07,0,.17,0,.21.1a1.69,1.69,0,0,1,.13.31c-.11,0-.23.13-.31.1-.35-.13-.69-.3-1-.45-2.09-1-4.2-1.87-6.28-2.87a7.33,7.33,0,0,1-4.28-5.93,7.3,7.3,0,0,0-2-4Z"/><path d="M35.33,17.43a2.39,2.39,0,0,0-3.15.58,3,3,0,0,1-2-2.88,3.1,3.1,0,0,1,5.9-1.32A3,3,0,0,1,35.33,17.43Z"/><path d="M50.14,29.07V25l4.9-1v4.75a.75.75,0,0,1-.53.82,1,1,0,0,1-1.1-.24.61.61,0,0,1,.15-.94,2.81,2.81,0,0,1,.58-.24V26.07l-1.27.24c-.52.1-1,.23-1.56.3-.28,0-.32.16-.31.4,0,.9,0,1.79,0,2.69a.75.75,0,0,1-.57.82,1,1,0,0,1-1.08-.28.62.62,0,0,1,.12-.88A4.32,4.32,0,0,1,50.14,29.07Z"/><path d="M48.49,18V16.28l-1.86.36c-.59.12-.59.12-.59.72s0,1.16,0,1.74a.58.58,0,0,1-.39.61.78.78,0,0,1-.85-.14.47.47,0,0,1,.09-.76,3.36,3.36,0,0,1,.46-.19V15.48l3.82-.76v.37c0,1.1,0,2.2,0,3.3a.68.68,0,0,1-1,.63.65.65,0,0,1-.36-.47c0-.16.2-.34.35-.49S48.37,18,48.49,18Z"/><path d="M31.68,20.22c1,.26,1.1.4,1.1,1.28l-1.21.06A1.19,1.19,0,0,0,31.68,20.22Z"/><text class="cls-3" transform="translate(36.22 59.73)">A<tspan class="cls-4"><tspan x="-20.02" y="12">CANTAR</tspan></tspan></text></svg>