<svg id="Capa_1" data-name="Capa 1" xmlns="http://www.w3.org/2000/svg" viewBox="0 0 80 80"><defs><style>.cls-1{fill:#fdfbe7;}.cls-2{fill:#e5231e;}.cls-3{font-size:10px;fill:#1d1d1b;font-family:NeoSans-Bold, NeoSans;font-weight:700;}.cls-4{font-size:12px;}</style></defs><rect class="cls-1" x="2.84" y="2.77" width="74.46" height="74.46" rx="2.67"/><path class="cls-2" d="M74.63,3.77A1.67,1.67,0,0,1,76.3,5.44V74.56a1.67,1.67,0,0,1-1.67,1.67H5.51a1.67,1.67,0,0,1-1.67-1.67V5.44A1.67,1.67,0,0,1,5.51,3.77H74.63m0-2H5.51A3.67,3.67,0,0,0,1.84,5.44V74.56a3.67,3.67,0,0,0,3.67,3.67H74.63a3.67,3.67,0,0,0,3.67-3.67V5.44a3.67,3.67,0,0,0-3.67-3.67Z"/><path d="M54.38,31.09a36.08,36.08,0,0,1-.31,4.65,16.29,16.29,0,0,1-1.53,5.34,14.51,14.51,0,0,1-1.1,1.7.53.53,0,0,1-.72.2.55.55,0,0,1-.23-.7,17.87,17.87,0,0,0,.67-4.59A3.42,3.42,0,0,0,50.78,36a1,1,0,0,0-1.57-.16,3,3,0,0,0-.52.85c-.35.83-.64,1.67-1,2.49a7.24,7.24,0,0,1-1.53,2.44,4.72,4.72,0,0,1-2.68,1.35,9.07,9.07,0,0,1-1.06.1.52.52,0,0,1-.56-.36.55.55,0,0,1,.22-.63,11.16,11.16,0,0,0,3.43-4.84,11.31,11.31,0,0,0,.62-5.28,6.29,6.29,0,0,0-.82-2.71,3.52,3.52,0,0,0-2.75-1.69,7.34,7.34,0,0,0-3.05.39A1,1,0,0,1,39,28a.52.52,0,0,1-.24-.89,3.9,3.9,0,0,1,1.6-1,7.35,7.35,0,0,1,3.19-.34,15.58,15.58,0,0,1,3.37.72,7.43,7.43,0,0,0,1,.23,2,2,0,0,0,1.73-.59,2,2,0,0,0,.64-1.8,10,10,0,0,0-1.61-4.41,6.55,6.55,0,0,0-3-2.53,2.36,2.36,0,0,0-1.15,0,8.7,8.7,0,0,0-4.23,1.83,13.89,13.89,0,0,0-4.84,7,6.21,6.21,0,0,0,0,4.25A14,14,0,0,0,36.29,32a6.6,6.6,0,0,1,.8,3.77,6.44,6.44,0,0,1-.91,2.66,8.68,8.68,0,0,1-2,2.27.57.57,0,0,1-.65.11.47.47,0,0,1-.29-.51.65.65,0,0,1,.18-.37,3.64,3.64,0,0,0,1.22-2.88,5.12,5.12,0,0,0-1.58-3.75,3.53,3.53,0,0,0-2.46-1,1.56,1.56,0,0,0-1.45.94,5.93,5.93,0,0,0-.58,2.14,24.51,24.51,0,0,0,.22,6.11c0,.28.08.56.13.84a.54.54,0,0,1-1,.35,16.32,16.32,0,0,1-1.8-4.36,12.16,12.16,0,0,1-.16-5.2,54.66,54.66,0,0,1,2.21-7.84c.2-.58.41-1.16.63-1.73a.25.25,0,0,0-.08-.33,7.78,7.78,0,0,1-2.66-5,8.24,8.24,0,0,1,.54-4.08c.1-.29.2-.58.32-.86a.46.46,0,0,1,.48-.27.48.48,0,0,1,.46.36,1,1,0,0,1,0,.3c0,.58,0,1.16,0,1.75a4,4,0,0,0,3.17,4,8.12,8.12,0,0,0,4.4-.15,7,7,0,0,0,1.67-.83,13.57,13.57,0,0,1,4.79-2,11.34,11.34,0,0,1,3.72-.17c.48.07,1,.07,1.45.18a7.77,7.77,0,0,1,5,3.69,13.27,13.27,0,0,1,1.69,4.57,28.19,28.19,0,0,1,.44,3.79C54.32,29.32,54.34,30.2,54.38,31.09Z"/><path d="M49.36,22.66a3.22,3.22,0,1,1-3.21-3.22A3.23,3.23,0,0,1,49.36,22.66Z"/><path d="M33.27,13a3.21,3.21,0,0,1,3.22,3.36A3.22,3.22,0,1,1,33.27,13Z"/><text class="cls-3" transform="translate(36.22 59.73)">A<tspan class="cls-4"><tspan x="-17.76" y="12">BAILAR</tspan></tspan></text></svg>